# xmcd
#
# Track frame offsets:
#	195
#	25895
#	49335
#
# Disc length: 1015 seconds
#
# Revision: 1
# Processed by: cddbd v1.4PL0 Copyright (c) Steve Scherf et al.
# Submitted via: audiograbber 1.82.01
#
DISCID=2003f503
DTITLE=Glenn Frey - I've got mine (Single)
DYEAR=1992
DGENRE=
TTITLE0=I've got mine
TTITLE1=A Walk in the Park
TTITLE2=Part of me, Part of you
EXTD=
EXTT0=
EXTT1=
EXTT2=
PLAYORDER=
